<svg width="10" height="10" viewBox="0 0 10 10" fill="none" xmlns="http://www.w3.org/2000/svg">
<g clip-path="url(#clip0_2_66)">
<circle cx="5" cy="7" r="2.5" stroke="#22B856"/>
<path d="M7.98314 1.21817C8.84443 1.81437 9.52716 2.65079 9.95798 3.63814C10.0552 3.86097 9.97794 4.13282 9.78534 4.24534C9.59306 4.35768 9.358 4.2688 9.2606 4.04558C8.53667 2.38647 6.92276 1.18325 5.00001 1.18325C3.0787 1.18325 1.46398 2.38502 0.739405 4.04556C0.642198 4.26841 0.407179 4.35784 0.214659 4.24532C0.0220808 4.13279 -0.0552239 3.86097 0.0420027 3.63812C0.472823 2.65077 1.15556 1.81434 2.01685 1.21815L2.75235 0.790816C3.337 0.510832 3.96454 0.342421 4.60937 0.293945L5.39062 0.293968C6.03544 0.342444 6.66298 0.510854 7.24763 0.790839L7.98314 1.21817Z" fill="#22B856"/>
</g>
<defs>
<clipPath id="clip0_2_66">
<rect width="10" height="10" fill="white"/>
</clipPath>
</defs>
</svg>
